<svg id="Capa_1" data-name="Capa 1" xmlns="http://www.w3.org/2000/svg" xmlns:xlink="http://www.w3.org/1999/xlink" viewBox="0 0 581.17 254.79"><defs><style>.cls-1{fill:none;}.cls-2{fill:#fff;}.cls-3{fill:#575550;}.cls-4{clip-path:url(#clip-path);}</style><clipPath id="clip-path"><path class="cls-1" d="M363.64,48.9a44.86,44.86,0,0,1,8.43,13.31,42.12,42.12,0,0,1,3,16v60.83a42.12,42.12,0,0,1-3.39,16.84,45.28,45.28,0,0,1-9.24,13.85,41.93,41.93,0,0,1-13.85,9.37,43,43,0,0,1-17,3.4h-57.3l-1.63-1.63v47h-16.3a42,42,0,0,1-17.79-3.81,43.78,43.78,0,0,1-14.26-10.32l-.82-.54v0l-.81-.54a45.61,45.61,0,0,1-12.49-15.35,43.4,43.4,0,0,1-4.62-20V26.9H325.08a42.09,42.09,0,0,1,22.13,6A47.28,47.28,0,0,1,363.1,48.36Z"/></clipPath></defs><path class="cls-1" d="M132.09,115v4.83c-2.26-.08-4.5-.22-6.79-.22q-6.26,0-12.09.28l-11.27.54q-4.62.27-8.69.41t-7.88.13V88.69h46.72V115Z"/><path class="cls-2" d="M545.63,48.9a44.86,44.86,0,0,1,8.43,13.31,42.12,42.12,0,0,1,3,16V184.43a42.12,42.12,0,0,1-3.39,16.84,43.76,43.76,0,0,1-23.36,23.22,43,43,0,0,1-17,3.4H438.08a42,42,0,0,1-17.79-3.81A43.78,43.78,0,0,1,406,213.76l-.81-.54v0l-.82-.54a45.76,45.76,0,0,1-12.5-15.35,43.52,43.52,0,0,1-4.61-20V26.9h16.84q14.4,0,23.08,5.16a38.26,38.26,0,0,1,13.58,13.31,2.18,2.18,0,0,1,.41.55,1.48,1.48,0,0,0,.68.54,41.06,41.06,0,0,1,6.65,10.32A64.69,64.69,0,0,1,452.61,69a82.28,82.28,0,0,1,1.9,13.58q.4,7.07.41,14.12v7.88c0,2.54-.09,5.07-.27,7.61q-.28,3.53-.28,6.78v41.29h35.85V26.9h16.57a42.8,42.8,0,0,1,22.28,6,46.11,46.11,0,0,1,16,15.75A.78.78,0,0,0,545.63,48.9Z"/><path class="cls-3" d="M363.64,48.9a44.86,44.86,0,0,1,8.43,13.31,42.12,42.12,0,0,1,3,16v60.83a42.12,42.12,0,0,1-3.39,16.84,45.28,45.28,0,0,1-9.24,13.85,41.93,41.93,0,0,1-13.85,9.37,43,43,0,0,1-17,3.4h-57.3l-1.63-1.63v47h-16.3a42,42,0,0,1-17.79-3.81,43.78,43.78,0,0,1-14.26-10.32l-.82-.54v0l-.81-.54a45.61,45.61,0,0,1-12.49-15.35,43.4,43.4,0,0,1-4.62-20V26.9H325.08a42.09,42.09,0,0,1,22.13,6A47.28,47.28,0,0,1,363.1,48.36Z"/><path class="cls-3" d="M372.07,62.21a44.86,44.86,0,0,0-8.43-13.31l-.54-.54a47.28,47.28,0,0,0-15.89-15.48,42.09,42.09,0,0,0-22.13-6h-35.7c3,5.83,3.9,13,1.43,21.26a103.13,103.13,0,0,1-7.36,17.76c0,20.22-.16,41.29.5,62.39a33.82,33.82,0,0,1,1,7.05c.67,16.35,5.48,31.78,10.66,47.17h35.95a43,43,0,0,0,17-3.4,41.93,41.93,0,0,0,13.85-9.37,45.28,45.28,0,0,0,9.24-13.85,42.12,42.12,0,0,0,3.39-16.84V78.24A42.12,42.12,0,0,0,372.07,62.21Z"/><g class="cls-4"><path class="cls-2" d="M310.61,192.25a8.66,8.66,0,0,0-.45-1.45c-.07.44-.13.83-.22,1.31A2.81,2.81,0,0,1,310.61,192.25Z"/><path class="cls-2" d="M354.78,106.71c-.49.12-1,.29-1.45.45h0a5.47,5.47,0,0,1,1.53.13A3.55,3.55,0,0,1,354.78,106.71Z"/><path class="cls-2" d="M358.77,104.09a12.17,12.17,0,0,0-1.3.4,10.88,10.88,0,0,1,1.3.23A2.64,2.64,0,0,1,358.77,104.09Z"/><path class="cls-2" d="M352,135l-1.08-.86,1.08-.43c-.39-.67-.77-1.34-1.18-2.06l3.1-3.08c.67,1.31,1.31,2.58,2,3.85l2.59-2.59h-2.36c0-.28-.07-.57-.1-.85l2.46-.44a30.11,30.11,0,0,1-.69-4,28.44,28.44,0,0,1,.4-3.39c0-.11-.65-.27-1-.4l-.42-1.07-.87,1.07-2.76,2,2.94,1.15-2.76,2-3.52-4.55c-.2,2.67-.35,4.62-.55,7.32l-1.77-1.4-1.31,1.22L344,124l2.58-1c-.1.09.21-.13.18-.19-.5-1-1-2-1.62-3.16l-2.11,1.1c0-1,0-1.81-.06-2.53l.2-.19,0,0c1.06-1.29,2.08-2.53,3.29-4,1.13,2.32-.77,5.58,3.06,6.59,0-.84,0-1.63-.06-2.35l.05,0c1.35-1.08,2.66-2.09,4.22-3.3-1-.35-1.77-.6-2.67-.89v-2.32l2,1.32,4.19-1.31c.58-1.44,1.15-2.88,1.93-4.87l1.95-.64a12,12,0,0,1,.06-2.79c.14-.61.83-1.09,1-1.9-1.71.5-3.44.53-3.33,2.57L359,104c.18,0,.44.47-.25.71,0,.3-.79.07-1.57-.15l.27-.08c-2.26-.35-3.19.34-2.69,2.22.12,0,.23-.09.36-.11s.44.46-.25.7c0,.3-.76.08-1.53-.13a1.89,1.89,0,0,0-1.31.37c-.48.49-.87,1.06-1.31,1.6a14.29,14.29,0,0,0-1.22,1.35h0s0-.07,0-.11l1.23-1.23-1.29-1.29v-4.52l3.34-1.71c.26.21.7.59,1.14,1l2-2.49c.14.35.29.71.43,1.07l.86-1.07,2.1-1.53-5.15-2.65c-.34.65-.57,1.11-.75,1.5l0,0c-.87-1-1.68-2-2.67-3.28L353.59,92l-1.49-1.62,1.31-1.53-2-.51c-.44,1-.86,1.84-1.27,2.72l-1.38-1.27-2.64,2.63c-1.07-1.62-2.07-3.15-3.41-5.2,1.54-.5,2.84-.92,4.07-1.4h0a10.26,10.26,0,0,1,.07,1.32l-.12-.11-1.06.9c.14.14.28.27.41.41l.9-1.06a.94.94,0,0,0-.1-.1l2.14,1c.64-.93,1.41-2.07,2.52-3.71L344,78.56c2,0,3.05-2.31,4.93-.7L351,76l-2.11-4.35c-1.56.43-3.09.85-4.54,1.33h0a9,9,0,0,1-.07-1.34l1.07-.43-1.07-.86a11.41,11.41,0,0,1,0-2.55c.82-3.6.68-6.08-.69-9.08-.64,0-1.28,0-1.84,0l-.2-.19-.06,0c-2.19-1.38-2.34-1.33-4.9.82L338,60.82l-2.53.7s-.22-1.21-.24-1.3l-3.38-4c-.27.76-.53,1.51-1,2.79-.81-1.1-1.44-2-2.06-2.82l1.07-.42-1.07-.87v-4l-2.14,1.26c-.78-1-1.7-2.09-2.73-3.34.53-1.25,3.06-1.91,2.28-4.3-1.72.86-3.44,1.72-5.09,2.64l-.19-.19,0,0-2.28-1.89V42h3.7l-.12.12.9,1c.14-.13.27-.27.41-.41l-1.06-.9-.11.12V40.66H320l-.09-.86,2.46-.44v1.3h2.58c-.19-1,.64-2.48-1.29-2.59h-4.43l-2-2.58c-.14-.36-.28-.72-.43-1.07-.29.35-.58.71-.86,1.07l-2,.94L310,34.59l4.06-.56c1.52-1.93-.2-3.36-.79-5a.94.94,0,0,0,.1.1l1.05-.9-.4-.41-.9,1.06.11.12H312l-1.29-1.29-.43-1.08-.86,1.08a11.46,11.46,0,0,1-1.28-1,20.27,20.27,0,0,1-1.31-1.6V23.86l-1.29,1.29h-1.29V27.7l-2.07-1c-1.79.31-3.89.72-6,1-.27,0-.64-.8-1-1.23H294c-.18-.89-.34-1.7-.36-1.8l-2.55,1c.17.23.33.47.5.71l2.27.17c-.27,2.6-3.21.12-3.86,2,0,.42,0,.84.11,2.07,4.46-1.49,7.74,1.2,12.61,3.5-3.23,0-2.19-.21-5.42-.78-.84-.07-2.75-1.23-3.95-1.32-.56-1.48-5.41.44-5.62-.11-2.91-.59-3.41.09-6.58.2-3.76.17-6.37.44-6.65.43-5.74,0-4,2.13-10.72,2.13-2.73,2.18-6.18,5.1-9.8,7.79-3.21,2.38-1.9,6.49-3.89,9.4-.67,1-.35,3.06.63,4.77.7,1.22-.19,3.34-.41,5.52,2.06,2.58,1,5.66-.48,8.59.59.8,1.07,1.44,1.43,1.94-.49,1.57-.9,2.9-1.31,4.23l1.07.86-1.07.43v1.29l1.07.87-1.07.42c-.21,4.35,1.36,8.33,2.73,12.31.33.94,1.79,1.49,2.65,2.15l2.09-1.61c.27,1.68.46,2.84.59,3.6l2.65,1-2.65.94,3.57,3.54,1.29,1.29a20.15,20.15,0,0,0,1.3,1.6,12.46,12.46,0,0,0,1.28,1l1.48-1.88,3.34,3.52c-1.09,3.72,2.37,5.57,2.57,8.55-.56,0-1.33.24-1.68,0-2.73-2.17-5.34-4.51-8.09-6.65a8.73,8.73,0,0,0-2.79-.92V113c2.49.6.81,2.59,1.36,3.8h0c-2.54-.54-.85-2.53-1.35-3.8-.43.29-1.09.5-1.25.9-.54,1.39-.9,2.84-1.33,4.27,2.07,1.13,4.07,2.33,3.88,5.16,2.83-.19,4,1.81,5.16,3.88.22,0,.47-.08.64,0q7.39,3.93,14.75,7.87v7c-1.16-2-1.92-3.15-2.44-4.37a6.43,6.43,0,0,0-4.89-4.17c-1.86-.42-3.46-1.93-5.23-2.84a17.69,17.69,0,0,0-2.83-.93L265.06,132c-1.36-3.39-2.42-6-3.47-8.67L258.66,126l2,2.83-5.6-1.08a18.41,18.41,0,0,0,4.5,5.9l5.17.23c-.82,1.49-1.3,2.33-1.74,3.13l3.08,3.21c.9-1.79,1.79-3.54,2.69-5.32a25.57,25.57,0,0,0,3.49,1.37,26,26,0,0,0,3.73.32c-.29,1.06-.44,1.64-.61,2.29-1.64-1.35-3.16-2-5.11-.24a7.2,7.2,0,0,0,7.05,4.07c.35,0,.68-.81,1-1.17a7.06,7.06,0,0,1-1.12-.83l.41-.41.9,1.06-.19.18c1.73.56,3.41,1.18,5.07,1.8.16,2.7-.45,5.83.7,8.07,1.39,2.72-.39,5.81,1.92,8.32,1.07,1.17-.8,3.78,1.07,5.31-1.47,1.86.94,3.46.34,5.26,2,.92-.9,3.34,1.29,4.2.43,3.49.68,7,1.37,10.43.34,1.68.89,3.18-.08,4.76,2.71,2,.75,5.08,1.91,7.62s.53,5.81.67,8.76c0,.64-.26,1.65.05,1.88,1.73,1.28,1.6,3.18,1.14,4.65-.51,1.62,2,2.47.5,4.36-.6.74.79,2.88.86,4.41a96.36,96.36,0,0,0,1.13,13.07c.9,5,.2,10.2.2,15.57-2.49,0-4.61-.06-6.72.06-.37,0-.69.81-1,1.24,35.75,0,45.2-12.49,41.82-10.52l-1.21-1.21-2,2.68h-3.76c-2.61,2.8-6.14,3.3-10.11,4.1,0-5-1.05-9.67-1.52-14.44-1.15-1.29-2.08-3-3.51-3.77a7.1,7.1,0,0,1-3.18-3.27c-.83-1.54-3.23-2.23-4.94-3.29l-2.28-1.89c-.5-4.55-.76-9.51-1.68-14.34-.85-4.46-2.59-8.77-2.29-14.37,2.88,5.47,4.38,10.24,3.52,15.7L310.69,218c0,2.7-.17,5.07.05,7.4a64,64,0,0,0,1.24,6.52h2.46c-2.89-4.89.66-10.53-2.46-15.33,0-.21-.08-.47,0-.63,2.68-4.77.54-9.83,1.44-15.19L311.08,202c-1.27-2.26,1.08-2.8,2.06-4.31-2.66-1.49.08-4.8-2.53-5.44a.35.35,0,0,1,0,.11c0,.18-.46.44-.7-.25-.3,0-.08-.79.15-1.56,0,.08,0,.16.07.25a27,27,0,0,0,.48-7.31,35.38,35.38,0,0,0-1.28-5.89,9.67,9.67,0,0,0-1.23-2.12l1.54-4.92L306.25,169l2.72-.55c-.27-1.13-.57-2.35-.87-3.56s-1.27-3.16-.77-3.69c1.6-1.72.08-2.45-.41-3.74s-.11-2.82-.11-4.12l-2.73-.64c.43-3.19.85-6.4,1.3-9.75a9.62,9.62,0,0,0-1.07.37c-.32.16-.6.37-1.53.95a26.91,26.91,0,0,0,.86-5.26,14.16,14.16,0,0,1,.08-4.07,41.24,41.24,0,0,1,2.18-4.87c.38-.91.61-1.88.91-2.83l-1.07-.87,1.07-.42c1.25-2.91.66-6.49-1.62-10l-8.67,12.65-5.21-.3v-.86l3.31-.27c.56-1.22,1.27-2.61,1.84-4.05,1.43-3.63,4.1-7,1.42-11.34-.75-1.21-.11-3.27-.11-4.74-3-1.52-4.21.55-5.6,1.93l-3.48-1.66c.08-1,.17-2.18.33-4.17l1.93,4.06,2.63-3.46L291.93,101l-3.47,1.9-3-2.79c-2.54-1.17-4.46,2.91-7.23.49L283,97.52c2.72-.14,5.89.6,8.45-2.59H277.09a7.78,7.78,0,0,0,.06,1.21h0c-1.1.07-2.14.07-3.52.07l-.68,2.58-2.28-.4c-.22-3.67,3.31-3,4.4-4.64l2,1.17v-2l5.39-1.77,2.32,1.28,3.33-1.92c.46,1.06,1,2.26,1.41,3.28,6.46-1.35,8.85,3.65,12.66,6.06l3.07-1.48a25.18,25.18,0,0,0-6.21-8.61h4.54c-3.81-3-.76-5.15-.3-7.47,2.57.2,2.25-2.45,3.44-3.63s1.58-2.8,2.39-4.34C306,74,302.93,75,300.44,73l0,0c-.18-2-1.66-1.14-2.57-1.27l-.19-.2-1.06.9.41.41.14-.16c-.28.66-.55,1.24-.55.48a3.08,3.08,0,0,1-1.79.79,1.12,1.12,0,0,1,.43.23l0,0c-2.31,1-1.25,2.47-.69,4,.23.62-.16,1.48-.27,2.24l2.24.76c-.46,1.65-.89,3.17-1.31,4.69-1.63.56-2.94,2.14-5.09.86-1.31-.8-3.1-.81-5-1.24V82.85L290,79c-.47-2.64-1.26-4.91-1.16-7.15.11-2.57,1-5.11,1.62-7.87a16.71,16.71,0,0,1,10.69-2.59c.48.65,1.11,1.51,1.86,2.55h5.1c-1.18-1.61-.91-4.39-4-4.24.67-.82,1-1.25,1.4-1.72l-2.65-1.08,2.77-1.31L303,54.31l2.55-2a.8.8,0,0,0,.13.13l1.05-.9c-.13-.14-.27-.27-.41-.41l-.88,1-1.57-1.89,2.68-.9c-1.39-1.87-.91-4-1-6.12,3,2.58,3.3,6.55,4.8,9.41-2.31,4.56.95,7.35,2.89,11.59v10.4l2.65,1.79a36.46,36.46,0,0,1-1.25-4.89,49.2,49.2,0,0,1-.05-5.69l2.32-2.31c.15,2.82.29,5.26.42,7.68l2.15.82c0,4.14.64,8.3-.19,12.15-.75,3.49-1,7.19-2.68,10.77l-4.52,2.88c.6,5.91-4.51,9.78-5.49,16l3,1.47c-.75,4.77,1.1,7.86,4.17,10.38,3.62-2.62,6.95-.26,10,1.23,2.15,1.06,4,2.4,6.49,3.09,2.22.62,3.84,3,6.74,2.49a3.37,3.37,0,0,1,2.62,1.24c2.79,3.53,7.47,2.87,10.88,5,.58.37,2.66,1,2.89-1.19C351.4,137.46,352.23,136,352,135Zm-.12-7.89a1.9,1.9,0,0,1,.18.2,7,7,0,0,1-.83,1.11l-.41-.4Zm-98.85-54,.9,1.06a1.85,1.85,0,0,0-.14.14v0a3.58,3.58,0,0,1-1.17-.76Zm1.73,18h-.64V88.47h.64Zm-1-5.17V83.3l-1.44-.59c.52-1.24,1-2.47,1.55-3.7-.48-.55-.9-1-1-1.17.32-1.26.6-2.32.87-3.39,1.34,1.11,2.57,2.33,3.8,3.56a16.39,16.39,0,0,1-1.79.12l-2,5.17,2.46,2.46A18.31,18.31,0,0,1,253.83,85.88Zm3.66-2.79-.64.09c-.15-.72-.31-1.44-.47-2.16l1.11-.07Zm1-3.79-.91-1,.13-.13h0a3.58,3.58,0,0,1,1.17.76Zm7,42.76c1,.19,2.36-.54,2.55,1.17C266.93,123.24,265.57,123.91,265.46,122.06ZM306,234.48h.43v1.29H306Zm-.21,8,.8,0c.1,1.56.21,3.12.31,4.68l-1.11.09ZM299,227.91c.05-1.18.05-2.48.05-3.77l-1.07-.87,1.07-.42v1.29c1.77,1.3,1.77,2.58-.05,3.77,1.67,3.64,2,12,.74,22.69-1.13-2.8-.52-5.08-.68-7.26-.28-3.92.66-7.93-1.2-11.77C297.44,230.67,297,228.63,299,227.91Zm11.68-24H312v.43h-1.29Zm-2.55,7L307,211v-2.14l.64-.09C307.83,209.48,308,210.21,308.14,210.93Zm-1.33-4.45h1.29v.43h-1.29Zm-2.15-32.73h.43V175h-.43Zm-2.59-22h.43v1.29h-.43Zm-.43-4.31h-1.29V147h1.29Zm-2.58-6.89h1.29V141h-1.29Zm-4.59,49.76c-.2-.46-.35-1-.59-1.39-.35-.62-.77-1.2-1.46-2.28H295c.08,1.12.17,2.26.26,3.4Zm.68-7-2.23,2.79v-8.24C294.51,178.91,292.7,181.63,295.15,183.38Zm-2.51-7.77c-2-1.85-3.46-4-2-7.51a22.11,22.11,0,0,0,.67,3c.31.73,1.06,1.33,1.21,2.06A11.14,11.14,0,0,1,292.64,175.61Zm-.27-15.82v4.72l-.79,0-.32-4.78Zm-1.29-1.74-.79,0-.33-4.78h1.12Zm-2.14-9.91.62-.1.5,2.1-1.12.14ZM287.86,157h.43v1.29h-.43Zm-1.29-20.67H287v1.29h-.43Zm-.43,14.64h1.29v.43h-1.29Zm-.43-5.6h-.43V144h.43Zm.21-6.22v2.14l-.64.09c-.16-.72-.31-1.44-.47-2.16Zm-4.19-6.82-.89-1.05h0a2,2,0,0,1,1.29.63ZM270.32,69.43l-4.86,1.42,1.6-3.93,8.44-2.51-4.68-.78c-.06-.61-.11-1.19-.16-1.74,3.85-1.64,7.36.11,11.47,1v4.65l-4.81,2.92C275.31,67.9,272,72.68,270.32,69.43Zm10.14,15.79-1.13-2.89h4.8Zm22.91-54.9h.43v1.29h-.43Zm-.95,11.59c-.19,0-.45-.46.24-.71,0-.3.79-.07,1.57.15A11.09,11.09,0,0,1,302.42,41.91ZM305.76,34c0-.21-.07-.41-.1-.62l2.11-.5c0,.37.09.74.13,1.12Zm6.51,6.72,0-1.12h2.14l.09.64Zm1.11,73.59h-.11l.1-.1S313.38,114.26,313.38,114.29Zm-.49-2.53c.16.79.31,1.59.47,2.38a2.43,2.43,0,0,1-1.3-2.27Zm1.15,3.72-.81-.94a3.07,3.07,0,0,1,1.21.53Zm5-56.71c-.5-1.62-1-3.18-1.64-5.29l3.4,1.1A5,5,0,0,1,319,58.77Zm4.27-3.48-.76-.8c-.4-2,.09-2.15,1-2.22C323.46,53.25,323.39,54.08,323.29,55.29Zm11.52,73.23h-.43v-1.29h.43ZM335,96l-.64.08c-.16-.72-.31-1.44-.47-2.16l1.11-.07Zm13.14,8.92h-2.58v-.65h2.58Zm-2-10c.91.79,1.74,1.65,2.6,2.5,1.25,2.51.95,3,.4,3.59L346,99.75c-.37-1.21-.87-2.81-1.41-4.59C345,95.1,345.85,94.73,346.13,95ZM341.5,62.84c0,.22.05.43.08.64L339.4,64c0-.37,0-.74,0-1.11Zm-2.82,67h-.43v-1.29h.43Zm1.73,2.16h-1.3v-.43h1.3Zm-.67-20.75,2.72-1.71C342.87,111.46,342.87,111.46,339.74,111.22Zm5.31,23.64-.9-1.05.25-.25a12.65,12.65,0,0,1-2.68,0c.06-.91.11-1.6.17-2.47l3,2c-.22.23-.43.46-.65.68a3.21,3.21,0,0,1,1.18.73Z"/><path class="cls-2" d="M279.68,250l1.29,1.3h1.29c.44-1.61.89-3.22,1.37-5C279.79,245.48,281.3,249.21,279.68,250Z"/><path class="cls-2" d="M275.8,250l1.29,1.3h2.59V250l-3.88-1.29Z"/><path class="cls-2" d="M238.2,127.47c-.23.07-.45.13-.67.21.34.09.67.17,1.1.31C238.44,127.79,238.34,127.64,238.2,127.47Z"/><path class="cls-2" d="M244.79,124.65l-3.29,2.5c-1.47-1.35-2.35-3.08-4.47-2.5a3.77,3.77,0,0,0,1.17,2.82,4.88,4.88,0,0,1,.65-.2c.19,0,.45.46-.22.72,0,.28-.82.06-1.6-.16.17,0,.34-.09.5-.15a10.74,10.74,0,0,0-3.08-.45l1.19,2L233.92,131c-2.12-1-2.81-4.3-5.93-3.76.39.67.77,1.35,1.17,2l-1.2,1.26,2.9,1.28-4.88,2c-.29-.72-.43-1.07-.56-1.42l.1.1,1.06-.9-.41-.4-.9,1.05.12.12c-1.27.47-3.23-1.16-3.79,1.2l0,0c-2.21.49-4.36.92-6.51,1.35v2L212,138.41l3,.58-1.78,4.38-6.46-2.79,4.53-.8-2.85-4.62c-1.75-.19-3.63.17-4.53-.61-2.22-1.94-3.76-.33-5.53.41l.1-.09-.9-1.06-.41.41,1.05.9.09-.09c-.31.44-.6,1.16-.94,1.19-1.65.13-3.31.06-5.08.06-.88,2.82-4.95,2.05-5.42,4.92a22.49,22.49,0,0,1,4.14,2.33c-3,1.08-3.55-.65-4.14-2.33-2.2-.26-3-1.63-2.74-3.63h0c2.8-.38,4.81-1.41,6.14-3.57a8.39,8.39,0,0,0-6.48,3.57H182c-.24.7-.46,1.47-.77,2.2-.39.91-.85,1.79-1.27,2.67l2.7,4.93c-2.44,2.22-.56,5.16-1.12,7.15l4.3,8.46,6.49,4,2.1-1-3.52-2.79,6,1.08c.11-2,.23-4,.35-6.07H198c.18,1.75.35,3.51.55,5.42l2.58-.65c-.51-1.09-.92-1.95-1.37-2.89l1-1.75,0,0a14,14,0,0,0,2.29-.48c.08-2.65,3.67-2,3.48-5.9l1.3,4c.6-2.67,2.71-3.2,4.5-4.11.16.83.32,1.67.49,2.5l.83-.11-.21-2.47-1,.05,0,0c-1-2.92-2.3-.36-3.47-.23-.27-.72-.55-1.44-.83-2.16-1.63.7-3.3,2.81-4.31-.37-2.26.92-4.06,2.19-5.92,2.28-2,.1-4.07-.9-6.11-1.42a34.3,34.3,0,0,0-5.88.6l-1.7-3.45c.23-.17.39-.4.56-.4,1.7,0,3.4,0,4.59,0l4.22,2.23c3.2-1.53,6.52-1.32,10.24.18a36.45,36.45,0,0,1,3.15-2.46h4.74l7.26-4.68c-1-3.48,1.94-4.35,4.05-5.1a209.16,209.16,0,0,0,24.36-10.9c1.86-.94,4.48-1.13,5.1-3.82-.93.29-1.87.55-2.79.86C248.09,123.48,246.44,124.07,244.79,124.65Zm-44.16,28.66v2.14l-.63.09-.48-2.18Zm5.27-16.51-.94.81a2.91,2.91,0,0,1,.54-1.22Zm-1.18.77-.1-.1.09,0Zm-8.51,3.75-.4-.4,1.05-.9.13.12h0A3.78,3.78,0,0,1,196.21,141.32Zm3.59,2.49c0-.21-.07-.41-.1-.62l2.1-.5c0,.37.1.75.14,1.12Zm2.38-5.86,2.38-.47a2.43,2.43,0,0,1-2.27,1.3C202.25,138.51,202.22,138.23,202.18,138Zm1.54,6.12-.06-1.12h4.71l.06.8Z"/><path class="cls-2" d="M277.05,240.2l1.57-.64c1.67,1.63,1.94,4.47,4.5,4.76.54-2.2,1.07-4.35,1.73-7.07l-5.12-2.18,6.63-6.63-3.93-.8c.52-2.9,1-5.49,1.32-7.4l-3.3-3.8-2.84-.15-1.81-3.78c-1.77.46-2.69-.76-3.78-1.79a41.55,41.55,0,0,0-3.78-2.77c.69,5.39,5.83,5.58,7.9,8.79l-6,2.61c.77,2.73,1.42,5,2.2,7.83,1.39-2,3.66-2.77,3.48-5.33l-4,.94,2.53-4.49a17.58,17.58,0,0,0,3,2.78,13.82,13.82,0,0,0,3.46.87v5.72l-.75-.59-1.19,3.27c-.43-2.82-.69-4.45-.93-6l-3.47,6.76c0,.59.13,2,.23,3.58,1.92-.91,2.42-3.85,4.85-2.39l-1.71,3.37c-2.09.1-4.33,0-4.68,3.26.39.22.86.48,1.27.69a7.55,7.55,0,0,1,.83-1.12l.41.41-1.06.9-.18-.19a9.12,9.12,0,0,1,.07,1.35l4.73,1.75Zm3.15-3,.9,1.06-.25.25a2,2,0,0,1,1.29.63l-.41.41-.9-1.06.26-.25a2,2,0,0,1-1.29-.63Z"/><path class="cls-2" d="M281,185.75c-.08-1-.17-2-.32-3.6l-6.21,5.62v-6.1c-1.75,1.5-2.09,3.56-3.26,4.9-2.13,2.43,1.25,4.12.59,6.15l-2.85,1c.56,1.63,1.08,3.12,1.57,4.54,2.5.85,3.13-1.73,4.76-2.4.94,1.63,1,4.26,4.1,3.55v-7.95l-2.91,1.33-4.65-1.86,4-.44Z"/><path class="cls-2" d="M271.1,178l4.24,1.26q.9,1.43,2.45,3.91c.75-6.19.75-6.19-2.22-10.24-2-1.88-3.8,1.72-5.81-.79l-4.42,6.53,4.19,3.7Zm.82-2.56h1.29v.43h-1.29Z"/><path class="cls-2" d="M274.21,168.8c.31.93.55,1.66.79,2.4.85-6.07-2.67-10.42-5.75-14.95-.14-.21-.56-.23-1.32-.5v5.35l-5.19-1.88c.93,1.89,1.5,3.06,1.88,3.82l2.49,1.09L264,165.22C267,168,270.64,168.54,274.21,168.8Zm-2.81-1.63-.9-1.06.1-.11a5.78,5.78,0,0,1,1.2.76Zm-.77-1.78-.44.14C269.42,165.06,270,165.21,270.63,165.39Zm-1.29-4.13h1.29v.43h-1.29Zm.53,4.37a5.76,5.76,0,0,1-1.05.32c-.18,0-.44-.46-1.32-1.45C268.57,165,269.29,165.34,269.87,165.63Z"/><path class="cls-2" d="M267.19,146.57l-4.06,3.68v5.38l2.19-.16c.08-1.11.16-2.12.24-3.18l4.27-2.06,2.67,6.4c.59-3.11,3.18-4.66,1.61-7.19l-2.19-.73v-2.06h0l2.56-.19c-.06-.91-.11-1.6-.17-2.47l-3,2,.48.51-1.56,1.15Z"/><path class="cls-2" d="M280.09,215.67c1-2,1.67-3.39,2.31-4.69l-4.55-8.76-.76.19v4.93a13.13,13.13,0,0,0,1.35,1.23,7.55,7.55,0,0,1,1.12.83l-.41.41-.9-1.06.19-.18c-.49.07-.92.07-1.28.12a7.06,7.06,0,0,1-.83,1.12l-.41-.41,1.06-.9.18.19a9.12,9.12,0,0,1-.07-1.35,17.9,17.9,0,0,0-2.41-1.71,16.73,16.73,0,0,0-2.76-.87l-1.17,2.14,2.4,1.68a7.06,7.06,0,0,1,.83-1.12l.41.41-1.06.9-.18-.19c.93,1.35,1.79,2.64,2.65,3.93h1.83Z"/><path class="cls-2" d="M259.22,135.84c-.13,1.41-.2,2.21-.24,3-.79,0-1.59.12-2.88.23l4.7,6.39,7.53-.49Z"/><path class="cls-2" d="M292.51,215a14.91,14.91,0,0,1-1.17-2.33,24.16,24.16,0,0,1-.46-3.31l-6,2.24v2.87c.95,1.74,1.46,2.68,2,3.58Z"/><path class="cls-2" d="M284.06,190.74c-2.49,1.92-1.9,4.08-1.36,7.22,1.45-3.26,2.91-2.24,4.11-1.3L290,195v-2.6l-1.69-1.69Z"/><path class="cls-2" d="M277.7,172.22c.93,1.64,1.66,2.9,2.57,4.49l1.29-3,1.36,1.36,3.91-4.25-3.68-2.36Z"/><path class="cls-2" d="M290.54,238.21l3.52-1.94-3-1,2.87-1.33c-.09-.61-.18-1.18-.28-1.87h-2.33L284.56,236l4.11,1.75.68-.61Z"/><path class="cls-2" d="M249,121.24l-1.42-2.77,3.91-.74-2.21-2.21-6.1,4.75c.76,1.31,1.26,2.17,1.82,3.12Z"/><path class="cls-2" d="M271.13,240.94c2.43,2.76,1,6.52,4.67,7.75l-1.29-7.75Z"/><path class="cls-2" d="M255.55,119.26c-.14-.36-.28-.72-.43-1.07-1.93.11-1.09,1.6-1.29,2.58,2.65.27.3,3,1.87,3.79,1.17-2,2.42-3.91,2-6.37h-1.29Z"/><path class="cls-2" d="M202.15,166l-2-1.07L194.4,166A6.16,6.16,0,0,0,202.15,166Z"/><path class="cls-2" d="M258.07,101.65v7.49h2.43C259.79,107,259.11,104.86,258.07,101.65Z"/><path class="cls-2" d="M220,154v-6.19l-2.77.58Z"/><path class="cls-2" d="M217.57,133.53c-.71-1.4-1.29-2.53-1.89-3.69l-1.85,1.86,1.56,2Z"/><path class="cls-2" d="M290,28h-7.48A8.13,8.13,0,0,0,290,28Z"/><path class="cls-2" d="M206.27,167.44l2.5-.58-2.5-3.84Z"/><path class="cls-2" d="M270.63,203.47V198.3C268.88,199.93,268.88,201.83,270.63,203.47Z"/><path class="cls-2" d="M284.85,202.82a2,2,0,0,0-.45-.43c-1.51-.79-2.14.53-3,1.29-.16.13-.3.29-.63.62.8.32,1.05.5,1.15.44C282.91,204.12,283.88,203.47,284.85,202.82Z"/><path class="cls-2" d="M274.69,160.85c1.21-.78,2.13-1.37,3-2l-.6-.64H281c0-1.05,0-1.82-1.19-1.74-1.29-.48-1.33-1-1.41-2.06l3,.24c-1,1-1.68,1.61-1.6,1.82,3.5-2.31,2.33-4.2,2.27-5.39l-3.14-1.79-3.49,3.48c.51,1.64,1.08,3.52,1.66,5.4l-2.55.19C274.59,159.29,274.64,160,274.69,160.85Z"/><path class="cls-2" d="M296.47,23.86c-1.93.11-1.09,1.6-1.29,2.58h2.6C297.22,25.33,296.85,24.59,296.47,23.86Z"/><path class="cls-2" d="M273.21,229.63h-3.87v.65h3.87Z"/><path class="cls-2" d="M195.07,134.47l-2.73-1.7C191.93,134.72,191.93,134.72,195.07,134.47Z"/><path class="cls-2" d="M237.81,122a10.8,10.8,0,0,0,1.81-.56l-3.13-.89C237.37,121.56,237.62,122,237.81,122Z"/><path class="cls-2" d="M269,185.33l-2.1.5c0,.21.07.41.1.62h2.14Z"/><path class="cls-2" d="M282.29,190.26c0-.34,0-.67-.05-1l.14.14,1.05-.9-.4-.41-.9,1.06,0,0-2.44.47.12.84Z"/><path class="cls-2" d="M242.2,123.35c.12,1.94,1.61,1.1,2.59,1.3v-1.3Z"/><path class="cls-2" d="M234.45,123.35c.11,1.94,1.61,1.1,2.58,1.3C236.93,122.71,235.43,123.55,234.45,123.35Z"/><ellipse class="cls-2" cx="270.63" cy="215.74" rx="1.83" ry="0.46"/><path class="cls-2" d="M212.5,133.69l.12-.12-.9-1-.41.41,1.06.9.12-.13c.12,1.91,1.6,1.09,2.58,1.28v-1.29Z"/><path class="cls-2" d="M256,115.73l-.86.09v2.37h1.3C256.27,117.37,256.13,116.55,256,115.73Z"/><path class="cls-2" d="M239.62,122.06c.11,1.93,1.61,1.1,2.58,1.29C242.09,121.42,240.6,122.26,239.62,122.06Z"/><path class="cls-2" d="M231.87,123.35h2.58l-1-1.29Z"/><path class="cls-2" d="M278.06,247.4v-2.58h-.64v2.58Z"/><path class="cls-2" d="M208.39,157.15l-1.12.14c.17.71.34,1.41.5,2.11l.62-.1Z"/><path class="cls-2" d="M231.87,124.65v-1.3l-1.07.43Z"/><path class="cls-2" d="M228.11,126.07l1-.9-.4-.41-.9,1.06.11.12c-1.27.47-3.25-1.19-3.86,1.29H228V126Z"/><path class="cls-2" d="M223,127.11l-.9-1-.41.4,1.06.91a.74.74,0,0,1,.12-.13l.42,1.06.86-1.07h-1.27Z"/><path class="cls-2" d="M219.08,129.93l0,0,2.43-.48c0-.27-.07-.55-.1-.83l-2.48.21c0,.34,0,.67.05,1l-.13-.13-1.06.9.41.41Z"/><ellipse class="cls-2" cx="223.47" cy="130.46" rx="0.91" ry="0.3"/><path class="cls-2" d="M215.07,150.06h1.29v-.43h-1.29Z"/><path class="cls-2" d="M210.33,155.66h.43v-1.3h-.43Z"/><path class="cls-2" d="M210.33,158.24h.43V157h-.43Z"/><path class="cls-2" d="M204.73,159.1H206v-.43h-1.29Z"/><ellipse class="cls-2" cx="209.25" cy="161.47" rx="0.91" ry="0.3"/><path class="cls-2" d="M216.79,163.41h.43v-1.29h-.43Z"/><path class="cls-2" d="M213.78,164.27h1.29v-.43h-1.29Z"/><path class="cls-2" d="M208.47,165.88l.25.25,1.06-.9-.41-.41Z"/><ellipse class="cls-2" cx="211.84" cy="165.35" rx="0.91" ry="0.3"/><path class="cls-2" d="M203.3,166.11l.91,1.06.4-.41-1.05-.9-.12.12c-.19-2.09.39-4.28-1.29-6.25V166h1.27Z"/><path class="cls-2" d="M268.57,169.75l.9-1.05-.25-.26-1.05.9Z"/><path class="cls-2" d="M266.64,170.4l-.41-.41-.89,1-1,.89.41.41.89-1.05Z"/><ellipse class="cls-2" cx="255.77" cy="98.16" rx="0.92" ry="0.3"/><path class="cls-2" d="M255.12,103.11h-1.29v.43h1.29Z"/><path class="cls-2" d="M260.51,103.1l1.08.87v-1.29Z"/><path class="cls-2" d="M262,105l.87-1.07h-1.29Z"/><path class="cls-2" d="M266.53,107.42l-1.07-.86v1.29Z"/><path class="cls-2" d="M283.67,196.87l-.25.25.9,1.06c.13-.14.27-.27.41-.41Z"/><path class="cls-2" d="M265.45,109.13l-.12.13.9,1,.41-.4-1.06-.9-.12.11v-1.27l-1.07.42Z"/><path class="cls-2" d="M274.08,200.88v-1.29h-.43v1.29Z"/><ellipse class="cls-2" cx="268.69" cy="112.37" rx="0.91" ry="0.3"/><ellipse class="cls-2" cx="244.14" cy="116.25" rx="0.91" ry="0.3"/><ellipse class="cls-2" cx="253.19" cy="116.25" rx="0.91" ry="0.3"/><path class="cls-2" d="M283.67,234l.41.41.89-1.05,1-.89-.41-.41-.89,1.05Z"/><path class="cls-2" d="M237.9,118.19h-.43v1.29h.43Z"/><path class="cls-2" d="M235.74,119.91h-1.29v.43h1.29Z"/><path class="cls-2" d="M286,248.57l.12.13c-1.9.11-1.08,1.6-1.27,2.58h1.29v-2.57l.11.12,1.06-.9c-.14-.14-.27-.28-.41-.41Z"/><path class="cls-2" d="M294.8,74c-.12,0-.13,0,0,0Z"/><path class="cls-2" d="M364.07,148.94l3.47-2.33V143.2l-6.22-1.31c-.68,1.38-3.36,1.77-2.7,4.24l2.37,1c-.05.26-.09.53-.14.8h-7.39v1.86a29.14,29.14,0,0,1,5,0c2.95.51,5.85,1.86,8.76,1.83,3.58,0,7.14-1.15,10.7-1.83a2.7,2.7,0,0,0,0-.61C373.61,149.11,369.31,149.4,364.07,148.94Zm-2.13-3.62h-.43V144h.43Z"/><path class="cls-2" d="M361.61,157.08c-.39-1-.67-1.76-.9-2.34l-4.7-1.41c-.48,4.23.63,8.54-.91,12.66a12.75,12.75,0,0,0,2.18-.12c.08-2.78.08-5.68.08-9,1.61,4.13,1.54,6.27-.08,9a9.26,9.26,0,0,0-.08,1.42l1.08.86-1.08.43,2.59,2c0-2.64-.13-4.32,0-6s-.66-3.43,1.39-6.17v13.8c3-6.52,2.76-12.13,2.06-18.55Z"/><path class="cls-2" d="M324.67,171.69a29,29,0,0,0-4.64-2.92,11.12,11.12,0,0,1-.69,3.32,8.67,8.67,0,0,1-2,2.1c.57,2.92,1,5.08,1.51,7.65.78-2.37,1.53-4.62,2.51-7.59l1.64,3.44,1.39-3c.38,1.68.66,2.89,1,4.56.79-1.62,1.31-2.67,1.86-3.78A19.56,19.56,0,0,0,324.67,171.69Z"/><path class="cls-2" d="M320.64,165.9l-.89-.06v-7.41l-1.16.72c-.2-.8-.4-1.6-.61-2.41-1,4-1.17,7.49,1.13,10.55h3.21c-.66-3,3.21-3.73,3.12-6.46l2.05,2.58c.43-2.41-.88-4.32-1.75-6.18l-4.62,4.63C321,162.9,320.82,164.4,320.64,165.9Z"/><path class="cls-2" d="M323,197h1.91a8,8,0,0,0-.06-1.23,7,7,0,0,1-1.11-.83l.41-.41.9,1.06-.2.18a7,7,0,0,1,1.13.8l-1.07.43v2.67l3.6-.33c-.58-1.82-1.07-3.32-1.65-5.12l-4.53-2.39-4.12,4c.49,1.73,1.15,4,2.16,7.51Zm-3.26.43H321v.43h-1.29Z"/><path class="cls-2" d="M365,169.27c0,.16.26.36.44.44s.29-.09.88-.31v-7.19l.78-.06c.26,1.28.51,2.57.77,3.85h.67c.15-2,.29-4,.39-5.3L372,156h-7C365,160.39,365,164.83,365,169.27Z"/><path class="cls-2" d="M314.49,149.83c.11,1.87.22,3.81.39,6.63l2.27-3.39L315,150.39c3.31.33,5.84-.92,7.29,2.68h-2.55l2,5.89c.89-3.32,1.49-5.6,2.14-8l-5.26-3.15Z"/><path class="cls-2" d="M382.66,147.57c-.39-1.38-.67-2.29-.9-3.22-.5-2-1.65-3.18-3.87-2.9a1.36,1.36,0,0,0,.12-.12c-.29-.36-.6-.71-.9-1.06l-.4.41,1.05.9.13-.12c1.22,1.94,2.31,3.85,0,5.89-.31.28,0,1.22,0,1.85C379.84,149.19,382,149.63,382.66,147.57Z"/><path class="cls-2" d="M320,187.09l1.07-.42a18.85,18.85,0,0,1-1.71-2.41,17,17,0,0,1-.87-2.76c-2.49.61-.8,2.6-1.29,3.88l1.07.86-1.07.43,5.17,5.17c-.43-1.29-.86-2.59-1.3-3.88Z"/><path class="cls-2" d="M325.73,213.63l1.95-2c-.83-2.15.62-4.72-.73-6.95l-2.06.22c.22,1.47.43,2.92.76,5.18C324.52,212.24,324.42,213.36,325.73,213.63Z"/><path class="cls-2" d="M371.75,147.66l5-1.75-8.25-3.79C370.12,144.63,370.14,146.79,371.75,147.66Z"/><path class="cls-2" d="M323.7,204.79l-3,.16a18.17,18.17,0,0,1,1.19,4c.06,1.11-.51,2.26-1,4C324.76,210.48,323.24,207.57,323.7,204.79Z"/><path class="cls-2" d="M380.43,156.33l2.62,1.2v2c1.51-2.57,1.79-5.39.62-6.43Z"/><path class="cls-2" d="M325.73,179.42l-3.5,5.63h4.14C326.16,183.25,326,181.77,325.73,179.42Z"/><path class="cls-2" d="M322.08,232.34c-.2-.14-.58,0-1,0v4.93l2.2-.42C324,234.88,323.61,233.42,322.08,232.34Z"/><path class="cls-2" d="M358.35,135.31l-2.44-1.62c-.11,1.12.57,2.68-1.6,2.65-.32,0-.65.8-1,1.23C355.29,137.56,357.44,138,358.35,135.31Z"/><path class="cls-2" d="M327.49,222.85v-2.64l-5.17.27v2.37l2.58-1.4Z"/><path class="cls-2" d="M322.32,167.29l1.5,2,3.67-4.58a16.73,16.73,0,0,0-2.76.87A18,18,0,0,0,322.32,167.29Z"/><path class="cls-2" d="M340.19,141.32v-4.81L338,141.32Z"/><path class="cls-2" d="M329.75,212.51v-5.17h-.65v5.17Z"/><path class="cls-2" d="M315.59,209.47l3.48,1.94C318.56,209.78,317.9,207.45,315.59,209.47Z"/><path class="cls-2" d="M321.46,225.71a11,11,0,0,0-.49,2.77c2.25-2.33,2.25-2.33,2-4.34A7.63,7.63,0,0,0,321.46,225.71Z"/><path class="cls-2" d="M364.42,141.69l3.64-2C365.56,138,364.76,139.7,364.42,141.69Z"/><path class="cls-2" d="M324.89,189a12.07,12.07,0,0,1,.59,1.39l.76-.27c-.09-1.14-.19-2.28-.27-3.4h-2.54C324.12,187.75,324.54,188.33,324.89,189Z"/><path class="cls-2" d="M312.82,145.57l-1.53,3.3h2.11C313.24,148,313.14,147.41,312.82,145.57Z"/><path class="cls-2" d="M382.89,163.37v-3.64C381.69,161.22,381.69,161.22,382.89,163.37Z"/><path class="cls-2" d="M316,168.26c-.16-.9-.26-1.47-.58-3.31-.8,1.73-1.2,2.61-1.53,3.31Z"/><path class="cls-2" d="M313.4,185.75l.09.92h3.66v-1.29Z"/><path class="cls-2" d="M316.51,130.46l3,2c.06-.86.1-1.56.16-2.46l-2.56-.19Z"/><path class="cls-2" d="M328.78,224.14V228l-.12-.12-1.05.9.4.41.9-1.06-.12-.12C330.54,226.71,330.54,225.44,328.78,224.14Z"/><path class="cls-2" d="M307.78,133.69h-.65v3.88h.65Z"/><path class="cls-2" d="M332.94,138.38c3.51.21,3.51.21,3.18-1.14Z"/><path class="cls-2" d="M375.34,137.41H379C377.48,136.21,377.48,136.21,375.34,137.41Z"/><path class="cls-2" d="M383.2,138.78l2.47-.21-.06-1,.14.13,1.06-.9c-.14-.13-.28-.27-.41-.41l-.9,1.06,0,0-2.44.48Z"/><path class="cls-2" d="M370,159.56c.17.84.33,1.68.5,2.52l.83-.11-.21-2.47Z"/><path class="cls-2" d="M329.94,164.26l-.09-.85h-2.36v1.29Z"/><path class="cls-2" d="M323.41,132.62h-2.15c0,.37.05.74.07,1.11l2.16-.47C323.46,133,323.43,132.83,323.41,132.62Z"/><path class="cls-2" d="M354.75,167.72l.09.86h2.36v-1.29Z"/><path class="cls-2" d="M326.19,43.24c-.19-1,.64-2.47-1.29-2.58C325.1,41.64,324.26,43.13,326.19,43.24Z"/><path class="cls-2" d="M370.13,146.61h-2.59l1,1.29Z"/><ellipse class="cls-2" cx="328.78" cy="191.19" rx="1.83" ry="0.46"/><path class="cls-2" d="M361.43,136.32l2.1-.5c0-.21-.07-.41-.1-.62h-2.14C361.33,135.58,361.38,136,361.43,136.32Z"/><path class="cls-2" d="M330.39,135v2.59H331V135Z"/><path class="cls-2" d="M328,135a10.41,10.41,0,0,0-1.81.55l3.13.9C328.45,135.49,328.19,135,328,135Z"/><path class="cls-2" d="M305.84,151.78h.65V149.2h-.65Z"/><path class="cls-2" d="M317.15,153.07h2.58l-1.61-1.29Z"/><path class="cls-2" d="M328.73,237.58a9.91,9.91,0,0,0-.55-1.81c-.23.78-.45,1.56-.89,3.13C328.27,238,328.76,237.77,328.73,237.58Z"/><path class="cls-2" d="M323.72,242.21c-.16-.84-.33-1.69-.49-2.53l-.84.12c.08.82.15,1.64.22,2.46Z"/><path class="cls-2" d="M315.34,129.77a11.09,11.09,0,0,0,1.81-.56l-3.13-.89C314.9,129.31,315.15,129.8,315.34,129.77Z"/><ellipse class="cls-2" cx="361.73" cy="120.12" rx="0.3" ry="0.92"/><ellipse class="cls-2" cx="366.9" cy="120.12" rx="0.3" ry="0.91"/><path class="cls-2" d="M361.08,124.22h1.29v-.44h-1.29Z"/><path class="cls-2" d="M368.07,128.4l.89-1,1.05-.9-.41-.4-.89,1-1,.9Z"/><path class="cls-2" d="M359.77,129.81l-.12.12c.3.35.6.71.91,1.06l.4-.41-1-.9-.13.12-1.28-1.28v1.29Z"/><path class="cls-2" d="M378.74,132.4h-.43v1.29h.43Z"/><path class="cls-2" d="M311.12,133.69V135h.43v-1.29Z"/><path class="cls-2" d="M325,134.22l1.06.9.25-.25-.9-1.06Z"/><ellipse class="cls-2" cx="365.6" cy="135.63" rx="0.3" ry="0.92"/><path class="cls-2" d="M313.27,136.71H312v.43h1.29Z"/><path class="cls-2" d="M380.34,138.33l-1-.9-.25.25.9,1.06Z"/><path class="cls-2" d="M307.67,140.15v-1.29h-.43v1.29Z"/><path class="cls-2" d="M310.26,140.15v-1.29h-.43v1.29Z"/><ellipse class="cls-2" cx="319.09" cy="140.8" rx="0.91" ry="0.3"/><path class="cls-2" d="M368.72,140.92l-1.06-.9c-.08.08-.17.16-.25.25l.9,1Z"/><path class="cls-2" d="M342.13,142.74h.43v-1.3h-.43Z"/><path class="cls-2" d="M316.38,142.86l-.4.4,1,.9,0,0,.48,2.44.83-.11-.21-2.48-1,.06.13-.14Z"/><ellipse class="cls-2" cx="384.99" cy="143.38" rx="0.3" ry="0.91"/><path class="cls-2" d="M327.26,44.11l-1.07-.87v1.29Z"/><path class="cls-2" d="M385.5,149.07l-1,.89.41.41.89-1.05,1.05-.89-.41-.41Z"/><path class="cls-2" d="M386.06,153.07h.43v-1.29h-.43Z"/><path class="cls-2" d="M372.71,156.52H374v-.43h-1.29Z"/><ellipse class="cls-2" cx="375.94" cy="156.3" rx="0.91" ry="0.3"/><path class="cls-2" d="M350.86,78.89l.41.41.89-1,1-.9-.41-.4c-.3.34-.59.69-.89,1Z"/><path class="cls-2" d="M367.54,168.15h1.29v-.43h-1.29Z"/><path class="cls-2" d="M321,180.64v.43h1.3v-.43Z"/><path class="cls-2" d="M322.1,187.54l-1.08-.87V188Z"/><ellipse class="cls-2" cx="351.39" cy="104.62" rx="0.3" ry="0.92"/><ellipse class="cls-2" cx="363.02" cy="105.91" rx="0.3" ry="0.91"/><path class="cls-2" d="M327.05,200.88h-.43v1.29h.43Z"/><path class="cls-2" d="M361.08,111.29h1.29v-.43h-1.29Z"/><path class="cls-2" d="M322.18,212.63l.9,1.05.41-.4-1.06-.9Z"/><ellipse class="cls-2" cx="324.26" cy="215.74" rx="0.3" ry="0.91"/><ellipse class="cls-2" cx="328.13" cy="215.74" rx="0.3" ry="0.91"/><ellipse class="cls-2" cx="330.72" cy="217.03" rx="0.91" ry="0.3"/><path class="cls-2" d="M356.13,113.44l1.07.87v1.27a1.14,1.14,0,0,0-.11-.11l-1.06.9.41.4.9-1-.09-.1,2,1.15c.5-1,1.06-2.18,1.86-3.84l-3.9-1.21V113Z"/><path class="cls-2" d="M322.32,224.14v-1.29l-1.07.42Z"/><path class="cls-2" d="M367.54,114.74h-1.29v.43h1.29Z"/><ellipse class="cls-2" cx="322.96" cy="229.96" rx="0.3" ry="0.91"/><path class="cls-2" d="M313.27,234.05h1.29v-.43h-1.29Z"/><path class="cls-2" d="M330,235l-.41-.4-.9,1.05.25.26Z"/><path class="cls-2" d="M364.53,116.89h-.43v1.3h.43Z"/><path class="cls-2" d="M266.75,129.81v-2.58l-1.29,1Z"/><path class="cls-2" d="M299.6,24a5.88,5.88,0,0,0-.33,1h5.28C303.15,22.93,301.18,24.23,299.6,24Z"/></g><path class="cls-2" d="M190.35,62.08a41,41,0,0,0-8.43-13.18l-.81-.81a45.17,45.17,0,0,0-15.75-15.21,42.39,42.39,0,0,0-21.73-5.71H68.39A43.8,43.8,0,0,0,37.16,39.94a45.66,45.66,0,0,0-9.51,14,42.33,42.33,0,0,0-3.52,17.24v106.2a43,43,0,0,0,4.75,20.23A45.84,45.84,0,0,0,41.78,213l.54.54.27.27v-.27l.55.55a42.53,42.53,0,0,0,31.78,13.85h16V182.53h35.58v39.11h1.63l5.7,6.25h59.48V78.24A43.12,43.12,0,0,0,190.35,62.08ZM132.09,121H90.49a5.12,5.12,0,0,1-5.12-5.12V95.16a6.77,6.77,0,0,1,6.77-6.77h33.73a6.21,6.21,0,0,1,6.22,6.21Z"/></svg>