<?xml version="1.0" encoding="utf-8"?>
<!-- Generator: Adobe Illustrator 25.2.3, SVG Export Plug-In . SVG Version: 6.00 Build 0)  -->
<svg version="1.1" id="Capa_1" xmlns="http://www.w3.org/2000/svg" xmlns:xlink="http://www.w3.org/1999/xlink" x="0px" y="0px"
	 viewBox="0 0 413 319" style="enable-background:new 0 0 413 319;" xml:space="preserve">
<style type="text/css">
	.st0{fill:#FFFFFF;stroke:#263238;stroke-width:0.75;stroke-linecap:round;stroke-linejoin:round;}
	.st1{fill:#263238;stroke:#263238;stroke-width:0.75;stroke-linecap:round;stroke-linejoin:round;}
	.st2{fill:#263238;}
	.st3{fill:#92E3A9;stroke:#263238;stroke-width:0.75;stroke-linecap:round;stroke-linejoin:round;}
	.st4{fill:#FFFFFF;}
	.st5{fill:none;stroke:#263238;stroke-width:0.75;stroke-linecap:round;stroke-linejoin:round;}
	.st6{fill:none;stroke:#263238;stroke-linecap:round;stroke-linejoin:round;}
	.st7{fill:#92E3A9;}
	.st8{fill:#263238;stroke:#263238;stroke-linecap:round;stroke-linejoin:round;}
	.st9{fill:#FFFFFF;stroke:#263238;stroke-linecap:round;stroke-linejoin:round;}
	.st10{clip-path:url(#SVGID_2_);}
	.st11{clip-path:url(#SVGID_4_);}
	.st12{opacity:0.5;fill:#FFFFFF;enable-background:new    ;}
	.st13{clip-path:url(#SVGID_6_);}
	.st14{clip-path:url(#SVGID_8_);}
	.st15{fill:none;stroke:#FFFFFF;stroke-linecap:round;stroke-miterlimit:10;}
	.st16{clip-path:url(#SVGID_10_);}
	
		.st17{opacity:0.5;fill:#FFFFFF;stroke:#263238;stroke-width:0.75;stroke-linecap:round;stroke-linejoin:round;enable-background:new    ;}
	.st18{clip-path:url(#SVGID_12_);}
	.st19{clip-path:url(#SVGID_14_);}
</style>
<g id="freepik--Device--inject-107">
	<polyline class="st0" points="203.9,297.4 161.3,201.9 264.6,201.9 392.1,286 	"/>
	<polygon class="st1" points="193.3,293.7 161.3,208.3 161.3,201.9 206.6,301.9 	"/>
	<polygon class="st0" points="220.4,205.9 264.3,257.4 211,269.8 180.6,212.2 	"/>
	<polygon class="st1" points="211,269.8 211,271.4 263.4,260.8 264.3,257.4 	"/>
	<polygon class="st2" points="218.7,224.4 220.9,227.7 226.7,226.2 224.3,223 	"/>
	<polygon class="st2" points="240.3,244.7 237.6,241 231.1,242.8 233.7,246.6 	"/>
	<polygon class="st2" points="214,217.5 215.7,220 221.1,218.6 219.4,216.3 	"/>
	<polygon class="st2" points="224.4,232.8 227.5,237.4 233.8,235.8 230.4,231.2 	"/>
	<polygon class="st2" points="240.7,235 235.3,236.3 238,240 243.5,238.5 	"/>
	<polygon class="st2" points="228,238.2 230.6,242 237,240.3 234.3,236.6 	"/>
	<polygon class="st2" points="207.9,218.9 209.6,221.5 214.8,220.2 213.1,217.7 	"/>
	<polygon class="st2" points="221.5,228.5 223.9,232 229.8,230.4 227.2,227 	"/>
	<polygon class="st2" points="216.2,220.8 218.1,223.6 223.7,222.2 221.6,219.4 	"/>
	<polygon class="st2" points="204.6,227.2 202.9,224.2 196.8,225.7 198.5,228.8 	"/>
	<polygon class="st2" points="195.8,234.5 200,233.4 198,229.9 193.9,231 	"/>
	<polygon class="st2" points="206.1,215.9 207.4,218 212.5,216.9 211.1,214.9 	"/>
	<polygon class="st2" points="202.4,223.3 200.8,220.4 194.6,221.8 196.3,224.9 	"/>
	<polygon class="st2" points="200.1,217.1 201.3,219.4 206.5,218.2 205.1,216.1 	"/>
	<polygon class="st2" points="191.4,226.2 195.4,225.1 193.7,222 189.6,222.9 	"/>
	<polygon class="st2" points="192.8,218.6 194.1,221 200.4,219.6 199.1,217.3 	"/>
	<polygon class="st2" points="212.4,226.1 214.5,229.5 220,228 217.8,224.7 	"/>
	<polygon class="st2" points="226.5,237.6 223.5,233.1 217.7,234.7 220.5,239.2 	"/>
	<polygon class="st2" points="201.8,220.2 203.4,223.1 208.7,221.8 207,219.1 	"/>
	<polygon class="st2" points="203,238.7 198.6,239.9 200.9,244.2 205.3,243 	"/>
	<polygon class="st2" points="215,230.3 217.2,233.9 222.9,232.3 220.5,228.8 	"/>
	<polygon class="st2" points="211,225.5 209.2,222.6 203.8,223.9 205.5,227 	"/>
	<polygon class="st2" points="221,256.9 214.9,258.4 217.1,262.4 223.2,260.9 	"/>
	<polygon class="st2" points="211.6,213.9 216.8,212.8 214,209 208.8,209.8 	"/>
	<polygon class="st2" points="198.7,216.5 196.1,211.9 189.7,213 192.4,217.8 	"/>
	<polygon class="st2" points="207,231.5 205,228 198.9,229.6 200.9,233.1 	"/>
	<polygon class="st2" points="222.5,244.2 220.1,240.2 213.7,241.8 216,246 	"/>
	<polygon class="st2" points="219.6,239.4 216.8,234.9 210.8,236.6 213.3,241 	"/>
	<polygon class="st2" points="229.6,242.3 227.1,238.4 221,240 223.5,243.9 	"/>
	<polygon class="st2" points="213.6,229.7 211.5,226.3 206,227.8 207.9,231.3 	"/>
	<polygon class="st2" points="210.1,222.3 211.9,225.3 217.2,223.9 215.3,221 	"/>
	<polygon class="st2" points="216.3,234.1 214.1,230.5 208.3,232.1 210.4,235.8 	"/>
	<polygon class="st2" points="232.7,246.8 230.2,243.1 224,244.7 226.3,248.6 	"/>
	<polygon class="st2" points="228.6,254 225.9,249.6 219.1,251.5 221.5,255.8 	"/>
	<polygon class="st2" points="208.1,248.1 205.8,243.9 201.3,245 203.6,249.3 	"/>
	<polygon class="st2" points="200.4,234.2 196.2,235.4 198.2,239.1 202.5,237.9 	"/>
	<polygon class="st2" points="220.6,256 218.2,251.7 212.1,253.4 214.5,257.6 	"/>
	<polygon class="st2" points="209.5,236 207.4,232.3 201.4,234 203.4,237.7 	"/>
	<polygon class="st2" points="212.1,214.7 213.5,216.7 218.8,215.5 217.4,213.6 	"/>
	<polygon class="st2" points="189.2,222.1 193.2,221.2 191.9,218.8 187.9,219.6 	"/>
	<polygon class="st2" points="205.6,215.1 210.6,214.1 207.8,210 202.9,210.8 	"/>
	<polygon class="st2" points="199.6,216.3 204.6,215.3 202,211 197.1,211.8 	"/>
	<polygon class="st2" points="197.6,229.1 195.9,226 191.8,227 193.5,230.1 	"/>
	<polygon class="st2" points="217.8,212.6 222.3,211.7 219.5,208.1 215,208.8 	"/>
	<polygon class="st2" points="191.4,218 188.8,213.1 184.8,213.8 187.4,218.8 	"/>
	<polygon class="st2" points="214,258.7 209.2,259.9 211.3,263.8 216.2,262.6 	"/>
	<polygon class="st2" points="236.8,252.8 230,254.6 232.5,258.5 239.5,256.8 	"/>
	<polygon class="st2" points="229.1,254.8 221.9,256.6 224.1,260.6 231.6,258.8 	"/>
	<polygon class="st2" points="244.8,250.8 237.8,252.6 240.4,256.6 247.8,254.8 	"/>
	<polygon class="st2" points="251.8,249 245.8,250.6 248.7,254.5 254.9,253 	"/>
	<polygon class="st2" points="211.2,253.6 206.6,254.9 208.8,259.1 213.5,257.8 	"/>
	<polygon class="st2" points="225.4,248.8 223,245 216.5,246.8 218.6,250.7 	"/>
	<polygon class="st2" points="236.3,252 233.3,247.6 226.8,249.4 229.5,253.8 	"/>
	<polygon class="st2" points="217.7,250.9 215.6,247 209.5,248.7 211.7,252.6 	"/>
	<polygon class="st2" points="206.1,254.1 210.8,252.8 208.6,248.9 204,250.1 	"/>
	<polygon class="st2" points="212.4,241.2 209.9,236.8 203.9,238.5 206.2,242.8 	"/>
	<polygon class="st2" points="244.2,250 240.9,245.5 234.2,247.4 237.2,251.8 	"/>
	<polygon class="st2" points="215.1,246.2 212.8,242.1 206.7,243.6 209,247.8 	"/>
	<polygon class="st2" points="231.3,230.9 234.7,235.5 240,234.2 236.4,229.5 	"/>
	<polygon class="st2" points="224.6,221.9 229.4,220.7 227.2,218 222.6,219.1 	"/>
	<polygon class="st2" points="220.4,216.1 222,218.4 226.6,217.2 225,215.1 	"/>
	<polygon class="st2" points="251.1,248.2 247.6,243.7 241.9,245.3 245.2,249.8 	"/>
	<polygon class="st2" points="225.2,222.7 227.6,225.9 232.5,224.6 230,221.4 	"/>
	<polygon class="st2" points="238.6,240.8 241.3,244.5 247,242.9 244.1,239.3 	"/>
	<polygon class="st2" points="219.8,215.3 224.4,214.3 222.9,212.5 218.4,213.4 	"/>
	<polygon class="st2" points="230.7,230.1 235.8,228.8 233.1,225.4 228.2,226.7 	"/>
	<path class="st0" d="M271.3,211.6v8.2c-0.8,0.8-1.7,1.5-2.7,2.1c-1.5,0.9-13.9,3-13.9,3l15.8,17.3c0,0,14.5-1.6,18.5-2.7
		c4.2-1.2,3.3-16.7,3.3-16.7L271.3,211.6z"/>
	<path class="st1" d="M271.3,211.6v8.2c0,0-0.2,0.2-0.6,0.5l18.4,19.1c3.9-1.8,3.1-16.6,3.1-16.6L271.3,211.6z"/>
	<polygon class="st0" points="243.4,107 243.4,193.8 309.5,245.9 309.5,111.9 	"/>
	<polygon class="st3" points="247.9,111.6 247.9,184.6 303.4,218.9 303.4,116.4 	"/>
	<rect x="309.5" y="111.9" class="st1" width="6.7" height="134"/>
	<polygon class="st0" points="251.6,116.1 251.9,181.3 298.3,207.7 298.3,127 266.4,122.2 264.3,117.6 	"/>
	<polygon class="st3" points="254.6,124 254.6,179.5 295.5,201.3 295.5,131.3 	"/>
	<ellipse transform="matrix(0.948 -0.3183 0.3183 0.948 -37.8897 95.6383)" class="st2" cx="273.7" cy="163.8" rx="11" ry="15.2"/>
	<path class="st4" d="M274.9,164.7l3.9-4.3c0.5-0.8,0.5-1.8-0.1-2.6c-0.6-0.8-1.5-1-2-0.4l-3.7,4.1l-3.8-6c-0.5-0.9-1.5-1.1-2-0.6
		c-0.6,0.7-0.6,1.8-0.1,2.6l3.9,6.2l-4,4.3c-0.5,0.8-0.5,1.8,0.1,2.6c0.2,0.4,0.6,0.6,1,0.7c0.4,0.1,0.8,0,1-0.3l3.8-4.1l3.7,6
		c0.2,0.4,0.6,0.7,1.1,0.8c0.4,0.1,0.7,0,1-0.2c0.6-0.7,0.6-1.8,0.1-2.5L274.9,164.7z"/>
	<line class="st5" x1="261.9" y1="142.8" x2="284.8" y2="149.6"/>
	<line class="st5" x1="261" y1="136.4" x2="290.7" y2="144.7"/>
	<path class="st0" d="M281.5,279.3c0,0-14.5,1.3-19.9,5.6s-1.3,6.4,3.8,7.8s27.9-0.8,30.9-3.8S296.2,278.8,281.5,279.3z"/>
	<path class="st1" d="M296.2,289c0.6-0.6,0.9-1.3,1-2.1c-6.5-0.3-15,1.6-22.7,4c-2.6,0.8-5.3,1.5-7.9,2.1
		C273.3,293.8,293.4,291.7,296.2,289z"/>
	<line class="st6" x1="230.1" y1="120.2" x2="240.7" y2="125.7"/>
	<line class="st6" x1="224" y1="117" x2="227.1" y2="118.6"/>
	<line class="st6" x1="232.4" y1="147.9" x2="236" y2="148.3"/>
	<line class="st6" x1="218.7" y1="146.3" x2="228.4" y2="147.4"/>
	<line class="st6" x1="234.7" y1="173.7" x2="222.7" y2="177"/>
</g>
<g id="freepik--Clock--inject-107">
	<path class="st2" d="M219.2,27c-15.9,0-28.7,12.8-28.7,28.7c0,15.9,12.8,28.7,28.7,28.7c15.9,0,28.7-12.8,28.7-28.7
		S235,27,219.2,27L219.2,27z M219.2,78.8c-12.7,0-23.1-10.3-23-23.1s10.3-23.1,23.1-23c12.7,0,23,10.3,23,23.1
		C242.3,68.4,232,78.8,219.2,78.8C219.2,78.8,219.2,78.8,219.2,78.8L219.2,78.8z"/>
	<path class="st2" d="M221.2,55.7c0,1.1-0.9,2.1-2,2.1c-1.1,0-2.1-0.9-2.1-2c0-1.1,0.9-2.1,2-2.1c0,0,0,0,0,0
		C220.3,53.7,221.2,54.6,221.2,55.7z"/>
	<polyline class="st6" points="212.3,66.1 219.2,55.7 230.8,65.3 	"/>
</g>
<g id="freepik--file-cabinet--inject-107">
	<polyline class="st7" points="66.9,77.7 63.4,68.3 65.3,70.4 65.3,67.1 69.2,73.1 65.7,51.7 70.3,63.5 70.8,53.1 71.5,56.6 
		72.4,44.8 74,62.8 76.3,56.6 75.8,64.6 82.1,46.2 79.1,69.2 83.4,66 80.9,70.1 84.1,67.8 80.5,78.4 67.1,78.6 	"/>
	<polygon class="st8" points="81.6,101 67.3,101 63.4,76 85.5,76 	"/>
	<rect x="48.4" y="100.8" class="st9" width="72.6" height="193.1"/>
	<rect x="52.6" y="107.1" class="st6" width="63.4" height="46.5"/>
	<rect x="71.7" y="126.2" class="st2" width="25.4" height="8.5"/>
	<rect x="52.6" y="161.4" class="st6" width="63.4" height="46.5"/>
	<rect x="71.7" y="180.4" class="st2" width="25.4" height="8.5"/>
	<rect x="52.6" y="215.7" class="st6" width="63.4" height="46.5"/>
	<rect x="71.7" y="234.7" class="st2" width="25.4" height="8.5"/>
</g>
<g id="freepik--Character--inject-107">
	<g>
		<defs>
			<rect id="SVGID_1_" x="4.7" y="67" width="230" height="228"/>
		</defs>
		<clipPath id="SVGID_2_">
			<use xlink:href="#SVGID_1_"  style="overflow:visible;"/>
		</clipPath>
		<g class="st10">
			<path class="st1" d="M128.8,282.9c0,0,36.4-16.1,55.9-17.3l14.3,31.5H91.2L128.8,282.9z"/>
			<path class="st4" d="M173.1,92.9c0,0,25.6,30.4,31,36c5.4,5.6,5.6,9.6,3.9,12.1s-14.8,7.1-28.3,15.8s-51.8,31-52.2,31.8
				s-4.1-27-4.1-27l64.1-26.4l-0.2-1.9l-20.8-38.5L173.1,92.9z"/>
			<g>
				<defs>
					<path id="SVGID_3_" d="M173.1,92.9c0,0,25.6,30.4,31,36c5.4,5.6,5.6,9.6,3.9,12.1s-14.8,7.1-28.3,15.8s-51.8,31-52.2,31.8
						s-4.1-27-4.1-27l64.1-26.4l-0.2-1.9l-20.8-38.5L173.1,92.9z"/>
				</defs>
				<clipPath id="SVGID_4_">
					<use xlink:href="#SVGID_3_"  style="overflow:visible;"/>
				</clipPath>
				<g class="st11">
					<path class="st7" d="M197.7,137.8L168,94.4l-1.4,0.4l20.8,38.5l0.2,1.9l-64.1,26.4c0,0,0.1,0.5,0.2,1.3l4.2,9.6L197.7,137.8z"
						/>
					<path class="st12" d="M197.7,137.8L168,94.4l-1.4,0.4l20.8,38.5l0.2,1.9l-64.1,26.4c0,0,0.1,0.5,0.2,1.3l4.2,9.6L197.7,137.8z"
						/>
				</g>
			</g>
			<path class="st5" d="M173.1,92.9c0,0,25.6,30.4,31,36c5.4,5.6,5.6,9.6,3.9,12.1s-14.8,7.1-28.3,15.8s-51.8,31-52.2,31.8
				s-4.1-27-4.1-27l64.1-26.4l-0.2-1.9l-20.8-38.5L173.1,92.9z"/>
			<path class="st0" d="M152.7,79.6c0,0-3.1-2.7-4.6,0s-1.7,7.1-0.8,7.5s4.8-0.2,5.4-1.4S152.7,79.6,152.7,79.6z"/>
			<path class="st0" d="M158.1,78.3c0,0-3.3-3.5-5.4-2.1s-1.5,8.7-0.8,9.2s5.4-1,6-1.9S158.1,78.3,158.1,78.3z"/>
			<path class="st0" d="M165.4,78.4c0,0-2.9-4-5.6-4s-4.6,9.6-3.7,10.4s7.3-0.2,7.7-0.8C164.4,82.2,165,80.4,165.4,78.4z"/>
			<path class="st0" d="M171,85c0-1.1-0.6-11.2-4-10.6s-7.1,8.7-6.9,10S171,85,171,85z"/>
			<path class="st0" d="M187.5,135.3c0,0,9.8,3.7,13.5,3.5"/>
			<path class="st4" d="M106.8,297.4c10.5-1.8,23.9-9,27.9-18c-3-15.7-6.8-37.8-6.8-51.3c0-22.7,6-35.6,3.3-51s-8.5-25.4-14.6-29.5
				c0,0-9.4,2.5-19.1,11.6S79.3,183.8,76,198.6s-7.7,60.5-7.7,72.4s-0.9,26.8-0.9,26.8c11.5,0,23.1,0,34.6,0
				C103.6,297.8,105.2,297.7,106.8,297.4z"/>
			<g>
				<defs>
					<path id="SVGID_5_" d="M106.8,297.4c10.5-1.8,23.9-9,27.9-18c-3-15.7-6.8-37.8-6.8-51.3c0-22.7,6-35.6,3.3-51
						s-8.5-25.4-14.6-29.5c0,0-9.4,2.5-19.1,11.6S79.3,183.8,76,198.6s-7.7,60.5-7.7,72.4s-0.9,26.8-0.9,26.8c11.5,0,23.1,0,34.6,0
						C103.6,297.8,105.2,297.7,106.8,297.4z"/>
				</defs>
				<clipPath id="SVGID_6_">
					<use xlink:href="#SVGID_5_"  style="overflow:visible;"/>
				</clipPath>
				<g class="st13">
					<path class="st7" d="M134.6,279.4c-5.9,5-32.2,14.7-36.1,15.6s-1.7-7.3,4.3-15.4s-7.3,3-9.4,3.9s0.9-15.8,0.9-24
						s7.7-77.5,7.7-77.5l14.6-26.6l5-3c-1.4-1.9-3.1-3.5-5-4.8c0,0-9.4,2.5-19.1,11.6S79.3,183.8,76,198.6s-7.7,60.5-7.7,72.4
						s-0.9,26.8-0.9,26.8c11.5,0,23.1,0,34.6,0c1.6,0,3.2-0.1,4.7-0.4C117.2,295.6,130.6,288.4,134.6,279.4z"/>
					<path class="st12" d="M134.6,279.4c-5.9,5-32.2,14.7-36.1,15.6s-1.7-7.3,4.3-15.4s-7.3,3-9.4,3.9s0.9-15.8,0.9-24
						s7.7-77.5,7.7-77.5l14.6-26.6l5-3c-1.4-1.9-3.1-3.5-5-4.8c0,0-9.4,2.5-19.1,11.6S79.3,183.8,76,198.6s-7.7,60.5-7.7,72.4
						s-0.9,26.8-0.9,26.8c11.5,0,23.1,0,34.6,0c1.6,0,3.2-0.1,4.7-0.4C117.2,295.6,130.6,288.4,134.6,279.4z"/>
				</g>
			</g>
			<path class="st5" d="M106.8,297.4c10.5-1.8,23.9-9,27.9-18c-3-15.7-6.8-37.8-6.8-51.3c0-22.7,6-35.6,3.3-51s-8.5-25.4-14.6-29.5
				c0,0-9.4,2.5-19.1,11.6S79.3,183.8,76,198.6s-7.7,60.5-7.7,72.4s-0.9,26.8-0.9,26.8c11.5,0,23.1,0,34.6,0
				C103.6,297.8,105.2,297.7,106.8,297.4z"/>
			<path class="st1" d="M115.9,151.2l16.5,30.1l0.9,16.5c0,0,4.6-11.8,2.6-19.5S115.9,151.2,115.9,151.2z"/>
			<polygon class="st1" points="133.3,197.8 128.7,267.5 133.8,281.9 137.4,253.2 134.4,195.8 			"/>
			<path class="st4" d="M128.8,122.9c0,0,0.6,7.5,1.2,11.2s-8.5,13.9-8.5,13.9l13.1,19.8l14.8-11.6c0,0,21-1.5,22.9-3.3
				s1.9-20.8,1.9-20.8l5-2.9c0,0-4.6-20-5.8-24.5l-1.2-4.4c0,0,6.7-2.3,5.2-9s-11.4-10-21.2-8.5S144,88.2,144,88.2
				s-13.9-0.2-21.8,6.4s-3.1,16.9-0.6,20.6C123.8,117.9,126.2,120.6,128.8,122.9z"/>
			<g>
				<defs>
					<path id="SVGID_7_" d="M128.8,122.9c0,0,0.6,7.5,1.2,11.2s-8.5,13.9-8.5,13.9l13.1,19.8l14.8-11.6c0,0,21-1.5,22.9-3.3
						s1.9-20.8,1.9-20.8l5-2.9c0,0-4.6-20-5.8-24.5l-1.2-4.4c0,0,6.7-2.3,5.2-9s-11.4-10-21.2-8.5S144,88.2,144,88.2
						s-13.9-0.2-21.8,6.4s-3.1,16.9-0.6,20.6C123.8,117.9,126.2,120.6,128.8,122.9z"/>
				</defs>
				<clipPath id="SVGID_8_">
					<use xlink:href="#SVGID_7_"  style="overflow:visible;"/>
				</clipPath>
				<g class="st14">
					<path class="st7" d="M152,149.8c-3.9-4.7,0-22.7,3-31.7s-4.3-12.8-4.3-12.8l21.9-3.8l-0.3-1.1c1.5-0.6,2.8-1.5,3.8-2.7l1.2-6.9
						c-2-6.3-11.5-9.4-21-7.9c-9.8,1.5-12.3,5.2-12.3,5.2s-13.9-0.2-21.8,6.4s-3.1,16.9-0.6,20.6c2.1,2.8,4.5,5.5,7.1,7.9
						c0,0,0.6,7.5,1.2,11.2s-8.4,13.9-8.4,13.9l13.1,19.8l14.8-11.6c0,0,16-1.2,21.4-2.6l1.6-0.6C172.3,153,155.9,154.5,152,149.8z"
						/>
					<path class="st12" d="M152,149.8c-3.9-4.7,0-22.7,3-31.7s-4.3-12.8-4.3-12.8l21.9-3.8l-0.3-1.1c1.5-0.6,2.8-1.5,3.8-2.7
						l1.2-6.9c-2-6.3-11.5-9.4-21-7.9c-9.8,1.5-12.3,5.2-12.3,5.2s-13.9-0.2-21.8,6.4s-3.1,16.9-0.6,20.6c2.1,2.8,4.5,5.5,7.1,7.9
						c0,0,0.6,7.5,1.2,11.2s-8.4,13.9-8.4,13.9l13.1,19.8l14.8-11.6c0,0,16-1.2,21.4-2.6l1.6-0.6C172.3,153,155.9,154.5,152,149.8z"
						/>
					<path class="st2" d="M163.2,114.1c0,0,0-0.3,0-0.8c0-1.5,0.2-4.7,2.7-5.6c3.3-1.1,6,1.9,6,1.9l0.2,3.1c-1-1.2-2.5-1.8-4-1.5
						C166.3,111.6,164.5,112.6,163.2,114.1z"/>
					<path class="st2" d="M168.8,120.2c0,1.6-0.4,2.9-1,2.9s-1-1.3-1-2.9s0.4-2.9,1-2.9S168.8,118.6,168.8,120.2z"/>
					<path class="st2" d="M162.8,140.4c-1.1,1.1-2.5,1.5-3.2,0.8s-0.4-2.1,0.7-3.2s2.5-1.5,3.2-0.8S163.8,139.3,162.8,140.4z"/>
				</g>
			</g>
			<path class="st5" d="M128.8,122.9c0,0,0.6,7.5,1.2,11.2s-8.5,13.9-8.5,13.9l13.1,19.8l14.8-11.6c0,0,21-1.5,22.9-3.3
				s1.9-20.8,1.9-20.8l5-2.9c0,0-4.6-20-5.8-24.5l-1.2-4.4c0,0,6.7-2.3,5.2-9s-11.4-10-21.2-8.5S144,88.2,144,88.2
				s-13.9-0.2-21.8,6.4s-3.1,16.9-0.6,20.6C123.8,117.9,126.2,120.6,128.8,122.9z"/>
			<path class="st1" d="M147.3,104.1c3.5-2.3,25-3.6,25-3.6s6.7-2.3,5.2-9s-11.4-10-21.2-8.5S144,88.1,144,88.1s-13.9-0.2-21.8,6.4
				s-3.1,16.9-0.6,20.6c2.1,2.8,4.5,5.5,7.1,7.9c0,0,0.3,4.1,0.7,7.8l6,1.7l6.6-3.5l6.6-1.5c0,0-4.8-3.7-2.1-7.1s7.7-4.6,7.9-7.3
				S143.8,106.4,147.3,104.1z"/>
			<path class="st15" d="M168.3,92.9c0,0-2.3-4.1,1.9-3.4s4.1,7.9,0.8,9.4s-21.8-1.9-32,1.1s-17.3,11.3-17.3,11.3"/>
			<path class="st15" d="M127.3,117.7c0,0,7.9-6.8,14.3-7.9s9.8-1.1,2.6,3s-2.3,3.4,2.3,1.9"/>
			<path class="st7" d="M143.8,132.6c0,0-1.1-12.1-7.1-12.5s-5.8,8.3-4,14.2s6,7.9,9.4,4.8"/>
			<g>
				<defs>
					<path id="SVGID_9_" d="M143.8,132.6c0,0-1.1-12.1-7.1-12.5s-5.8,8.3-4,14.2s6,7.9,9.4,4.8"/>
				</defs>
				<clipPath id="SVGID_10_">
					<use xlink:href="#SVGID_9_"  style="overflow:visible;"/>
				</clipPath>
				<g class="st16">
					<path class="st17" d="M143.8,132.6c0,0-1.1-12.1-7.1-12.5s-5.8,8.3-4,14.2s6,7.9,9.4,4.8"/>
				</g>
			</g>
			<path class="st5" d="M143.8,132.6c0,0-1.1-12.1-7.1-12.5s-5.8,8.3-4,14.2s6,7.9,9.4,4.8"/>
			<path class="st4" d="M122,140.6l19.3,29.3l-8.9,11.4c-4-7.7-8.4-15.2-13.3-22.3c-6.6-9.2-7.3-10.8-7.3-10.8L122,140.6z"/>
			<g>
				<defs>
					<path id="SVGID_11_" d="M122,140.6l19.3,29.3l-8.9,11.4c-4-7.7-8.4-15.2-13.3-22.3c-6.6-9.2-7.3-10.8-7.3-10.8L122,140.6z"/>
				</defs>
				<clipPath id="SVGID_12_">
					<use xlink:href="#SVGID_11_"  style="overflow:visible;"/>
				</clipPath>
				<g class="st18">
					<path class="st7" d="M122,140.6l-10.2,7.5c0,0,0.6,1.1,4.8,7.2l10.8-6.5L122,140.6z"/>
					<path class="st12" d="M122,140.6l-10.2,7.5c0,0,0.6,1.1,4.8,7.2l10.8-6.5L122,140.6z"/>
				</g>
			</g>
			<path class="st5" d="M122,140.6l19.3,29.3l-8.9,11.4c-4-7.7-8.4-15.2-13.3-22.3c-6.6-9.2-7.3-10.8-7.3-10.8L122,140.6z"/>
			<path class="st0" d="M171.5,213.4c0,0,3.1-6.4,3.7-10.4s0.8-6.4,3.1-8.3s9.8-9.6,11-12.5s1.9-0.2,2.5,2.1s0.4,4.4-1.5,5.8
				c-1.4,1-2.6,2.2-3.7,3.5l1.7,1.4c0,0,24.1-9,26.6-10s4.8-0.2,5,1.7s-0.6,2.1-1.7,2.7s-13.9,5-15.6,5.8l-1.7,0.8l1.4,1.4
				c0,0,6.9-0.2,10.4-0.4s8.7-0.8,9.4,0.4c0.7,1.1,0.5,2.5-0.6,3.3c-0.8,0.8-2,1.2-3.1,1c-1.7,0-16.6,1.1-16.6,1.1l0.4,2.1
				c0,0,15.8,2.5,16.4,3.3s0.6,1.2,0,2.3s-1,1.2-2.5,1.2s-14-1.9-14-1.9s6.2,3.5,6.9,4s3.5,1,2.7,2.3s-1.1,1.7-2.3,1.5
				s-9.4-3.9-9.4-3.9s-8.3,1.1-11,1.4c-2,0.1-4,0-6-0.2l-7.7,5L171.5,213.4z"/>
			<path class="st4" d="M116.9,204.8c0,0-5.6-23.3-7.9-28.5s-15.4-10-21.8,1.4s-0.6,24.3,1.7,33.5s16.9,51,19.1,56.2s6,4,8.1,3.5
				s60.6-47.8,60.6-47.8l-4.6-10.4L126.7,236L116.9,204.8z"/>
			<g>
				<defs>
					<path id="SVGID_13_" d="M116.9,204.8c0,0-5.6-23.3-7.9-28.5s-15.4-10-21.8,1.4s-0.6,24.3,1.7,33.5s16.9,51,19.1,56.2
						s6,4,8.1,3.5s60.6-47.8,60.6-47.8l-4.6-10.4L126.7,236L116.9,204.8z"/>
				</defs>
				<clipPath id="SVGID_14_">
					<use xlink:href="#SVGID_13_"  style="overflow:visible;"/>
				</clipPath>
				<g class="st19">
					<path class="st7" d="M115.2,256c1.5-4.5,3.2-8.9,5.1-13.3c2.1-4.3-10.3,9.9-12.8,2.1s-18.8-46.2-15.8-59.1
						c1.3-6,4.8-11.2,9.8-14.7c-4.8-1.1-10.6,0.1-14.2,6.6c-6.4,11.4-0.6,24.3,1.7,33.5s16.9,51,19.1,56.2s6,4,8.1,3.5
						c1.5-0.4,33-25.5,50-39.2L115.2,256z"/>
					<path class="st12" d="M115.2,256c1.5-4.5,3.2-8.9,5.1-13.3c2.1-4.3-10.3,9.9-12.8,2.1s-18.8-46.2-15.8-59.1
						c1.3-6,4.8-11.2,9.8-14.7c-4.8-1.1-10.6,0.1-14.2,6.6c-6.4,11.4-0.6,24.3,1.7,33.5s16.9,51,19.1,56.2s6,4,8.1,3.5
						c1.5-0.4,33-25.5,50-39.2L115.2,256z"/>
				</g>
			</g>
			<path class="st5" d="M116.9,204.8c0,0-5.6-23.3-7.9-28.5s-15.4-10-21.8,1.4s-0.6,24.3,1.7,33.5s16.9,51,19.1,56.2s6,4,8.1,3.5
				s60.6-47.8,60.6-47.8l-4.6-10.4L126.7,236L116.9,204.8z"/>
			<line class="st5" x1="165.4" y1="216.5" x2="170.6" y2="227.1"/>
			<path class="st0" d="M43.2,163.4l-26.6,18.4c0,0,13.1,13.9,11.8,50.2c-1,27.8,2.7,59.3,8,65.7h28.3c0,0-9.8-54-9.1-84.9
				C56.2,189.3,49.1,173,43.2,163.4z"/>
			<path class="st1" d="M46.4,163.4l-26.6,18.4c0,0,13.1,13.9,11.8,50.2c-1,27.8,2.7,59.3,8,65.7h28.3c0,0-9.8-54-9.1-84.9
				C59.3,189.3,52.3,173,46.4,163.4z"/>
			<polygon class="st0" points="43.2,163.4 46.4,163.4 19.8,181.8 16.6,181.8 			"/>
		</g>
	</g>
</g>
</svg>
